<svg width="436" height="526" viewBox="0 0 436 526" fill="none" xmlns="http://www.w3.org/2000/svg">
<g filter="url(#f1)">
<path d="M93.6329 454.978H88.9527C87.8627 454.978 86.8331 455.479 86.1603 456.336C84.4849 458.472 85.7295 461.621 88.4122 462.035L110.843 465.491L179.066 475.946C186.056 477.017 191.485 482.6 192.361 489.617C192.817 493.276 194.539 496.66 197.227 499.185L204.259 505.788C206.06 507.479 208.438 508.42 210.908 508.42C216.272 508.42 220.621 504.072 220.621 498.708V498.212C220.621 496.295 221.161 494.417 222.178 492.793L229.917 480.44C232.187 476.817 237.38 476.587 239.961 479.994C242.214 482.969 246.584 483.245 249.194 480.579L260.942 468.577C264.281 465.166 266.331 460.701 266.741 455.946L268.27 438.23C268.859 431.404 267.681 424.542 264.849 418.303L260.304 408.288C256.402 399.689 258.049 389.586 264.482 382.672L265.146 381.957C269.366 377.422 271.389 371.181 270.706 365.024C269.782 356.694 263.965 349.586 255.942 347.16C249.671 345.264 244.65 340.542 242.372 334.4L239.237 325.946C236.394 318.279 238.016 309.669 243.454 303.563L247.086 299.483C248.351 298.063 249.049 296.228 249.049 294.327C249.049 291.547 250.538 288.98 252.951 287.599L267.18 279.455C270.871 277.343 272.54 272.905 271.155 268.883C269.959 265.408 271.033 261.554 273.855 259.199L280.412 253.725C283.301 251.314 285.153 247.884 285.584 244.145C285.997 240.561 287.716 237.255 290.414 234.859L326.056 203.202C329.855 199.828 335.505 199.596 339.567 202.647L342.818 205.089C345.005 206.732 348.048 206.601 350.085 204.775C352.642 202.484 356.626 202.939 358.6 205.749L360.576 208.562C362.221 210.903 364.903 212.296 367.765 212.296H369.201C374.634 212.296 379.332 208.511 380.487 203.202L384.632 184.154C385.484 180.237 385.079 176.151 383.474 172.477L381.304 167.509C380.366 165.36 380.452 162.902 381.539 160.825L382.965 158.098C383.922 156.267 383.395 154.011 381.725 152.794C380.543 151.934 378.996 151.755 377.649 152.323L376.064 152.991C373.319 154.149 370.145 153.5 368.074 151.359L360.068 143.082C358.991 141.968 359.243 140.14 360.58 139.358C361.915 138.578 362.169 136.755 361.097 135.64L355.087 129.388C353.04 127.26 350.098 126.241 347.173 126.648L326.527 129.52C322.654 130.059 319.295 132.472 317.549 135.97C315.99 139.093 313.135 141.37 309.744 142.196L286.569 147.843C284.28 148.4 281.893 147.413 280.666 145.402C279.136 142.894 275.885 142.065 273.34 143.532L247.031 158.704C239.094 163.281 233.343 170.872 231.086 179.752L230.169 183.364C229.077 187.658 229.312 192.181 230.841 196.339C233.218 202.801 232.423 210.005 228.692 215.793L216.232 235.125C213.668 239.103 210.055 242.296 205.793 244.351C202.311 246.031 198.495 246.903 194.629 246.903H166.978C159.647 246.903 153.927 240.558 154.686 233.266C155.159 228.719 153.083 224.282 149.288 221.731L130.249 208.931C126.76 206.586 121.998 207.992 120.342 211.856C119.851 213.003 119.049 213.99 118.028 214.706L116.497 215.779C112.953 218.264 110.843 222.32 110.843 226.648V242.862C110.843 245.282 112.372 247.439 114.656 248.239C117.447 249.218 119.026 252.169 118.29 255.033L116.871 260.564C116.091 263.599 116.539 266.819 118.116 269.527L118.339 269.911C120.492 273.607 120.689 278.125 118.867 281.995L116.939 286.089C113.863 292.619 105.431 294.457 99.9171 289.797L98.1786 288.328C97.3193 287.602 96.2307 287.204 95.1058 287.204C92.6297 287.204 90.567 289.102 90.3617 291.569L89.5722 301.057C89.1947 305.595 86.7907 309.72 83.0289 312.285L74.4447 318.139C70.5661 320.784 67.8048 324.772 66.694 329.333L65.1962 335.484C64.4864 338.399 62.2499 340.699 59.3559 341.489C54.3228 342.864 51.8148 348.508 54.1678 353.165L64.2601 373.139C66.542 377.655 66.0669 383.075 63.034 387.125C59.7001 391.577 59.4849 397.632 62.4944 402.31L66.0529 407.841C68.7244 411.994 72.6728 415.166 77.3034 416.88L81.555 418.453C87.1441 420.522 91.6761 424.737 94.145 430.161L100.549 444.231C102.345 448.176 100.482 452.821 96.459 454.433C95.5603 454.793 94.6011 454.978 93.6329 454.978Z" stroke="#CFCFCF" strokeWidth="2" fill="rgba(255,255,255,0.3)"/>
</g>
<path d="M272 143.996L282.762 121.004C282.91 120.689 283.211 120.473 283.558 120.434L300.447 118.561C300.791 118.523 301.13 118.665 301.344 118.937L306.325 125.277C306.439 125.423 306.592 125.534 306.767 125.598L321.5 131" stroke="#CFCFCF" strokeWidth="2"/>
<path d="M319.363 64L297.971 69.8342C297.6 69.9355 297.319 70.2412 297.251 70.6201L295.416 80.7111C295.382 80.8997 295.402 81.0942 295.475 81.2715L308.055 111.753C308.235 112.189 308.086 112.691 307.697 112.958L301.242 117.396C300.766 117.723 300.665 118.384 301.022 118.838L305.691 124.78C305.804 124.924 305.954 125.034 306.125 125.098L320.26 130.41C320.418 130.469 320.587 130.488 320.753 130.464L348.5 126.5" stroke="#CFCFCF" strokeWidth="2"/>
<g filter="url(#filter0_b_7827_44077)">
<path d="M115.5 467C115.5 467.443 115.192 467.97 114.379 468.536C113.58 469.091 112.392 469.611 110.88 470.056C107.861 470.944 103.661 471.5 99 471.5C94.3395 471.5 90.1392 470.944 87.1203 470.056C85.6075 469.611 84.4197 469.091 83.6214 468.536C82.8084 467.97 82.5 467.443 82.5 467C82.5 466.557 82.8084 466.03 83.6214 465.464C84.4197 464.909 85.6075 464.389 87.1203 463.944C90.1392 463.056 94.3395 462.5 99 462.5C103.661 462.5 107.861 463.056 110.88 463.944C112.392 464.389 113.58 464.909 114.379 465.464C115.192 466.03 115.5 466.557 115.5 467Z" stroke="white" strokeOpacity="0.2"/>
</g>
<path d="M107.62 454.45C106.57 449.83 102.54 447.75 99 447.75C99 447.75 99 447.75 98.99 447.75C95.46 447.75 91.42 449.82 90.37 454.44C89.2 459.6 92.36 463.97 95.22 466.72C96.28 467.74 97.64 468.25 99 468.25C100.36 468.25 101.72 467.74 102.77 466.72C105.63 463.97 108.79 459.61 107.62 454.45Z" fill="#F0F0F0"/>
<path d="M99 459.46C100.74 459.46 102.15 458.05 102.15 456.31C102.15 454.57 100.74 453.16 99 453.16C97.2603 453.16 95.85 454.57 95.85 456.31C95.85 458.05 97.2603 459.46 99 459.46Z" fill="white"/>
<path d="M50.1692 503H47.8012V491.8H50.1692V495.96H55.1932V491.8H57.5612V503H55.1932V498.136H50.1692V503ZM62.7244 503.224C60.5004 503.224 58.8684 501.368 58.8684 499.048C58.8684 496.728 60.5164 494.872 62.7884 494.872C63.9084 494.872 64.7404 495.224 65.2684 495.768V495.096H67.3484V503H65.2684V502.04C64.7564 502.728 64.0044 503.224 62.7244 503.224ZM63.1884 501.144C64.3404 501.144 65.2684 500.312 65.2684 499.048C65.2684 497.784 64.3404 496.952 63.1884 496.952C62.0364 496.952 61.1084 497.784 61.1084 499.048C61.1084 500.312 62.0364 501.144 63.1884 501.144ZM78.22 499V497.096H83.404V497.608C83.404 501.464 80.812 503.224 78.028 503.224C74.892 503.224 72.38 500.84 72.38 497.4C72.38 493.96 74.94 491.576 78.028 491.576C80.956 491.576 82.796 493.096 83.212 495.528H80.796C80.46 494.44 79.452 493.784 78.028 493.784C76.22 493.784 74.748 495.256 74.748 497.4C74.748 499.544 76.22 501.016 78.028 501.016C79.548 501.016 80.572 500.28 80.94 499H78.22ZM86.0044 494.088C85.2204 494.088 84.5964 493.464 84.5964 492.68C84.5964 491.896 85.2204 491.272 86.0044 491.272C86.7884 491.272 87.4124 491.896 87.4124 492.68C87.4124 493.464 86.7884 494.088 86.0044 494.088ZM87.1244 503H84.8844V495.096H87.1244V503ZM92.3681 503.224C90.1441 503.224 88.5121 501.368 88.5121 499.048C88.5121 496.728 90.1601 494.872 92.4321 494.872C93.5521 494.872 94.3841 495.224 94.9121 495.768V495.096H96.9921V503H94.9121V502.04C94.4001 502.728 93.6481 503.224 92.3681 503.224ZM92.8321 501.144C93.9841 501.144 94.9121 500.312 94.9121 499.048C94.9121 497.784 93.9841 496.952 92.8321 496.952C91.6801 496.952 90.7521 497.784 90.7521 499.048C90.7521 500.312 91.6801 501.144 92.8321 501.144ZM101.024 503H98.7844V495.096H100.864V496.328C101.184 495.512 102.144 494.872 103.36 494.872C104.912 494.872 105.952 495.912 105.952 497.704V503H103.712V498.232C103.712 497.384 103.104 496.856 102.368 496.856C101.632 496.856 101.024 497.384 101.024 498.232V503ZM111.558 506.424C109.206 506.424 107.75 505.096 107.686 503.416H110.038C110.134 504.056 110.662 504.536 111.606 504.536C112.71 504.536 113.318 503.864 113.318 503V501.784C112.854 502.392 112.102 502.808 111.014 502.808C108.806 502.808 107.334 501 107.334 498.84C107.334 496.68 109.014 494.872 111.062 494.872C112.214 494.872 112.998 495.288 113.478 495.896V495.096H115.558V502.84C115.558 504.744 114.262 506.424 111.558 506.424ZM111.494 500.728C112.582 500.728 113.414 499.88 113.414 498.84C113.414 497.736 112.582 496.952 111.494 496.952C110.406 496.952 109.574 497.736 109.574 498.84C109.574 499.944 110.406 500.728 111.494 500.728ZM126.244 503.224C123.108 503.224 120.596 500.84 120.596 497.4C120.596 493.96 123.156 491.576 126.244 491.576C129.252 491.576 131.14 493.24 131.572 495.896H129.156C128.804 494.584 127.748 493.784 126.244 493.784C124.436 493.784 122.964 495.256 122.964 497.4C122.964 499.544 124.436 501.016 126.244 501.016C127.732 501.016 128.804 500.248 129.156 498.888H131.62C131.14 501.576 129.028 503.224 126.244 503.224ZM134.095 494.088C133.311 494.088 132.687 493.464 132.687 492.68C132.687 491.896 133.311 491.272 134.095 491.272C134.879 491.272 135.503 491.896 135.503 492.68C135.503 493.464 134.879 494.088 134.095 494.088ZM135.215 503H132.975V495.096H135.215V503ZM141.691 495.096V496.952H139.835V499.976C139.835 500.616 140.155 500.936 140.795 500.936H141.691V503H140.075C138.619 503 137.595 502.024 137.595 500.376V496.952H136.459V495.096H137.595V493.08H139.835V495.096H141.691ZM144.772 506.2H143.188V504.168H144.068C144.676 504.168 145.076 503.896 145.3 503.336L145.428 503L142.452 495.096H144.868L146.212 498.936C146.388 499.432 146.516 499.912 146.564 500.408L148.42 495.096H150.772L147.316 504.296C146.836 505.576 146.02 506.2 144.772 506.2ZM87.0105 517.888L89.6505 522H87.0585L84.8025 518.4V522H82.5625V510.8H84.8025V517.392L86.8985 514.096H89.4745L87.0105 517.888ZM93.0025 522H90.7625V514.096H92.8425V515.264C93.1305 514.432 93.9465 513.872 95.0505 513.872C96.0425 513.872 96.7625 514.416 97.0345 515.12C97.3705 514.448 98.1865 513.872 99.2105 513.872C100.603 513.872 101.387 514.832 101.387 516.352V522H99.1465V516.912C99.1465 516.272 98.7465 515.856 98.1705 515.856C97.5945 515.856 97.1945 516.272 97.1945 516.912V522H94.9545V516.912C94.9545 516.272 94.5545 515.856 93.9785 515.856C93.4025 515.856 93.0025 516.272 93.0025 516.912V522ZM111.093 522.224C108.501 522.224 106.485 520.224 106.485 516.4C106.485 512.576 108.501 510.576 111.093 510.576C113.685 510.576 115.701 512.576 115.701 516.4C115.701 520.224 113.685 522.224 111.093 522.224ZM111.093 520.016C112.405 520.016 113.333 518.72 113.333 516.4C113.333 514.08 112.405 512.784 111.093 512.784C109.781 512.784 108.853 514.08 108.853 516.4C108.853 518.72 109.781 520.016 111.093 520.016Z" fill="#FFF"/>
<g filter="url(#filter1_b_7827_44077)">
<path d="M210 247C210 247.443 209.692 247.97 208.879 248.536C208.08 249.091 206.892 249.611 205.38 250.056C202.361 250.944 198.161 251.5 193.5 251.5C188.839 251.5 184.639 250.944 181.62 250.056C180.108 249.611 178.92 249.091 178.121 248.536C177.308 247.97 177 247.443 177 247C177 246.557 177.308 246.03 178.121 245.464C178.92 244.909 180.108 244.389 181.62 243.944C184.639 243.056 188.839 242.5 193.5 242.5C198.161 242.5 202.361 243.056 205.38 243.944C206.892 244.389 208.08 244.909 208.879 245.464C209.692 246.03 210 246.557 210 247Z" stroke="white" strokeOpacity="0.2"/>
</g>
<path d="M202.12 234.45C201.07 229.83 197.04 227.75 193.5 227.75C193.5 227.75 193.5 227.75 193.49 227.75C189.96 227.75 185.92 229.82 184.87 234.44C183.7 239.6 186.86 243.97 189.72 246.72C190.78 247.74 192.14 248.25 193.5 248.25C194.86 248.25 196.22 247.74 197.27 246.72C200.13 243.97 203.29 239.61 202.12 234.45Z" fill="#F0F0F0"/>
<path d="M193.5 239.46C195.24 239.46 196.65 238.05 196.65 236.31C196.65 234.57 195.24 233.16 193.5 233.16C191.76 233.16 190.35 234.57 190.35 236.31C190.35 238.05 191.76 239.46 193.5 239.46Z" fill="white"/>
<path d="M167.396 275H165.028V270.568L161.476 263.8H164.18L165.78 267.08C165.956 267.448 166.068 267.688 166.212 268.072C166.356 267.688 166.468 267.448 166.644 267.08L168.244 263.8H170.948L167.396 270.568V275ZM177.964 271.224V271.576H172.092C172.188 272.664 173.004 273.368 173.98 273.368C174.892 273.368 175.564 272.888 175.756 272.168H177.9C177.516 274.104 176.092 275.224 173.98 275.224C171.5 275.224 169.868 273.4 169.868 271.048C169.868 268.584 171.74 266.872 173.964 266.872C176.46 266.872 177.964 268.392 177.964 271.224ZM173.996 268.6C173.18 268.6 172.492 269.096 172.204 269.896H175.868C175.644 269.112 175.02 268.6 173.996 268.6ZM181.677 275H179.437V267.096H181.517V268.328C181.837 267.512 182.797 266.872 184.013 266.872C185.565 266.872 186.605 267.912 186.605 269.704V275H184.365V270.232C184.365 269.384 183.757 268.856 183.021 268.856C182.285 268.856 181.677 269.384 181.677 270.232V275ZM197.914 269.24L199.786 263.8H202.73V275H200.442V269.336C200.442 268.696 200.49 268.152 200.538 267.56L198.154 275H196.458L194.074 267.56C194.122 268.152 194.17 268.696 194.17 269.336V275H191.882V263.8H194.826L196.698 269.24C196.906 269.832 197.242 270.664 197.306 271.448C197.37 270.664 197.706 269.832 197.914 269.24ZM205.564 266.088C204.78 266.088 204.156 265.464 204.156 264.68C204.156 263.896 204.78 263.272 205.564 263.272C206.348 263.272 206.972 263.896 206.972 264.68C206.972 265.464 206.348 266.088 205.564 266.088ZM206.684 275H204.444V267.096H206.684V275ZM210.728 275H208.488V267.096H210.568V268.328C210.888 267.512 211.848 266.872 213.064 266.872C214.616 266.872 215.656 267.912 215.656 269.704V275H213.416V270.232C213.416 269.384 212.808 268.856 212.072 268.856C211.336 268.856 210.728 269.384 210.728 270.232V275ZM219.693 275H217.453V263.8H219.693V268.168C220.045 267.512 220.941 266.872 222.205 266.872C223.773 266.872 224.877 267.976 224.877 269.784V275H222.637V270.424C222.637 269.496 222.013 268.856 221.165 268.856C220.317 268.856 219.693 269.496 219.693 270.424V275Z" fill="#fff"/>
<g filter="url(#filter2_b_7827_44077)">
<path d="M277 446C277 446.443 276.692 446.97 275.879 447.536C275.08 448.091 273.892 448.611 272.38 449.056C269.361 449.944 265.161 450.5 260.5 450.5C255.839 450.5 251.639 449.944 248.62 449.056C247.108 448.611 245.92 448.091 245.121 447.536C244.308 446.97 244 446.443 244 446C244 445.557 244.308 445.03 245.121 444.464C245.92 443.909 247.108 443.389 248.62 442.944C251.639 442.056 255.839 441.5 260.5 441.5C265.161 441.5 269.361 442.056 272.38 442.944C273.892 443.389 275.08 443.909 275.879 444.464C276.692 445.03 277 445.557 277 446Z" stroke="white" strokeOpacity="0.2"/>
</g>
<path d="M269.12 433.45C268.07 428.83 264.04 426.75 260.5 426.75C260.5 426.75 260.5 426.75 260.49 426.75C256.96 426.75 252.92 428.82 251.87 433.44C250.7 438.6 253.86 442.97 256.72 445.72C257.78 446.74 259.14 447.25 260.5 447.25C261.86 447.25 263.22 446.74 264.27 445.72C267.13 442.97 270.29 438.61 269.12 433.45Z" fill="#F0F0F0"/>
<path d="M260.5 438.46C262.24 438.46 263.65 437.05 263.65 435.31C263.65 433.57 262.24 432.16 260.5 432.16C258.76 432.16 257.35 433.57 257.35 435.31C257.35 437.05 258.76 438.46 260.5 438.46Z" fill="white"/>
<path d="M212.52 474H208.904V462.8H212.52C215.624 462.8 218.168 464.608 218.168 468.4C218.168 472.192 215.624 474 212.52 474ZM211.272 464.976V471.824H212.424C214.328 471.824 215.8 470.64 215.8 468.4C215.8 466.16 214.328 464.976 212.424 464.976H211.272ZM222.357 474.224C220.613 474.224 219.653 473.008 219.653 471.312V466.096H221.893V470.864C221.893 471.712 222.501 472.24 223.237 472.24C223.973 472.24 224.581 471.712 224.581 470.864V466.096H226.821V474H224.741V472.768C224.341 473.664 223.589 474.224 222.357 474.224ZM237.698 470V468.096H242.882V468.608C242.882 472.464 240.29 474.224 237.506 474.224C234.37 474.224 231.858 471.84 231.858 468.4C231.858 464.96 234.418 462.576 237.506 462.576C240.434 462.576 242.274 464.096 242.69 466.528H240.274C239.938 465.44 238.93 464.784 237.506 464.784C235.698 464.784 234.226 466.256 234.226 468.4C234.226 470.544 235.698 472.016 237.506 472.016C239.026 472.016 240.05 471.28 240.418 470H237.698ZM245.483 465.088C244.699 465.088 244.075 464.464 244.075 463.68C244.075 462.896 244.699 462.272 245.483 462.272C246.267 462.272 246.891 462.896 246.891 463.68C246.891 464.464 246.267 465.088 245.483 465.088ZM246.603 474H244.363V466.096H246.603V474ZM251.846 474.224C249.622 474.224 247.99 472.368 247.99 470.048C247.99 467.728 249.638 465.872 251.91 465.872C253.03 465.872 253.862 466.224 254.39 466.768V466.096H256.47V474H254.39V473.04C253.878 473.728 253.126 474.224 251.846 474.224ZM252.31 472.144C253.462 472.144 254.39 471.312 254.39 470.048C254.39 468.784 253.462 467.952 252.31 467.952C251.158 467.952 250.23 468.784 250.23 470.048C250.23 471.312 251.158 472.144 252.31 472.144ZM267.934 474H265.15L261.15 462.8H263.646L266.222 470.464C266.334 470.816 266.43 471.12 266.542 471.504C266.654 471.12 266.75 470.816 266.862 470.464L269.438 462.8H271.934L267.934 474ZM274.189 465.088C273.405 465.088 272.781 464.464 272.781 463.68C272.781 462.896 273.405 462.272 274.189 462.272C274.973 462.272 275.597 462.896 275.597 463.68C275.597 464.464 274.973 465.088 274.189 465.088ZM275.309 474H273.069V466.096H275.309V474ZM279.353 474H277.113V462.8H279.353V474ZM283.396 474H281.156V462.8H283.396V474ZM288.64 474.224C286.416 474.224 284.784 472.368 284.784 470.048C284.784 467.728 286.432 465.872 288.704 465.872C289.824 465.872 290.656 466.224 291.184 466.768V466.096H293.264V474H291.184V473.04C290.672 473.728 289.92 474.224 288.64 474.224ZM289.104 472.144C290.256 472.144 291.184 471.312 291.184 470.048C291.184 468.784 290.256 467.952 289.104 467.952C287.952 467.952 287.024 468.784 287.024 470.048C287.024 471.312 287.952 472.144 289.104 472.144ZM298.864 477.424C296.512 477.424 295.056 476.096 294.992 474.416H297.344C297.44 475.056 297.968 475.536 298.912 475.536C300.016 475.536 300.624 474.864 300.624 474V472.784C300.16 473.392 299.408 473.808 298.32 473.808C296.112 473.808 294.64 472 294.64 469.84C294.64 467.68 296.32 465.872 298.368 465.872C299.52 465.872 300.304 466.288 300.784 466.896V466.096H302.864V473.84C302.864 475.744 301.568 477.424 298.864 477.424ZM298.8 471.728C299.888 471.728 300.72 470.88 300.72 469.84C300.72 468.736 299.888 467.952 298.8 467.952C297.712 467.952 296.88 468.736 296.88 469.84C296.88 470.944 297.712 471.728 298.8 471.728ZM312.343 470.224V470.576H306.471C306.567 471.664 307.383 472.368 308.359 472.368C309.271 472.368 309.943 471.888 310.135 471.168H312.279C311.895 473.104 310.471 474.224 308.359 474.224C305.879 474.224 304.247 472.4 304.247 470.048C304.247 467.584 306.119 465.872 308.343 465.872C310.839 465.872 312.343 467.392 312.343 470.224ZM308.375 467.6C307.559 467.6 306.871 468.096 306.583 468.896H310.247C310.023 468.112 309.399 467.6 308.375 467.6Z" fill="#fff"/>
<path d="M9.21344 291.3V293.476H6.15744V302.5H3.78944V293.476H0.733437V291.3H9.21344ZM11.9884 302.724C9.76444 302.724 8.13244 300.868 8.13244 298.548C8.13244 296.228 9.78044 294.372 12.0524 294.372C13.1724 294.372 14.0044 294.724 14.5324 295.268V294.596H16.6124V302.5H14.5324V301.54C14.0204 302.228 13.2684 302.724 11.9884 302.724ZM12.4524 300.644C13.6044 300.644 14.5324 299.812 14.5324 298.548C14.5324 297.284 13.6044 296.452 12.4524 296.452C11.3004 296.452 10.3724 297.284 10.3724 298.548C10.3724 299.812 11.3004 300.644 12.4524 300.644ZM20.6447 302.5H18.4047V294.596H20.4847V295.764C20.7727 294.932 21.5887 294.372 22.6927 294.372C23.6847 294.372 24.4047 294.916 24.6767 295.62C25.0127 294.948 25.8287 294.372 26.8527 294.372C28.2447 294.372 29.0287 295.332 29.0287 296.852V302.5H26.7887V297.412C26.7887 296.772 26.3887 296.356 25.8127 296.356C25.2367 296.356 24.8367 296.772 24.8367 297.412V302.5H22.5967V297.412C22.5967 296.772 22.1967 296.356 21.6207 296.356C21.0447 296.356 20.6447 296.772 20.6447 297.412V302.5ZM38.0148 302.724C35.4228 302.724 33.9668 301.268 33.9668 298.98H36.3508C36.3508 299.924 37.0388 300.516 38.0148 300.516C38.9748 300.516 39.5668 300.068 39.5668 299.252C39.5668 298.452 38.6868 298.068 37.7748 297.764L36.4468 297.316C35.1348 296.868 34.1108 295.908 34.1108 294.276C34.1108 292.372 35.8068 291.076 37.8228 291.076C40.3508 291.076 41.7268 292.516 41.7268 294.532H39.3908C39.3908 293.796 38.7828 293.252 37.8228 293.252C37.0228 293.252 36.4468 293.684 36.4468 294.212C36.4468 294.788 36.9588 295.092 38.0308 295.46L39.5508 295.988C40.9108 296.468 41.9348 297.492 41.9348 299.012C41.9348 301.14 40.3988 302.724 38.0148 302.724ZM47.2044 302.724C44.6284 302.724 42.9324 300.868 42.9324 298.548C42.9324 296.228 44.6284 294.372 47.2044 294.372C49.7804 294.372 51.4764 296.228 51.4764 298.548C51.4764 300.868 49.7804 302.724 47.2044 302.724ZM47.2044 300.644C48.3564 300.644 49.2364 299.812 49.2364 298.548C49.2364 297.284 48.3564 296.452 47.2044 296.452C46.0524 296.452 45.1724 297.284 45.1724 298.548C45.1724 299.812 46.0524 300.644 47.2044 300.644ZM55.1009 302.5H52.8609V294.596H54.9409V295.828C55.2609 295.012 56.2209 294.372 57.4369 294.372C58.9889 294.372 60.0289 295.412 60.0289 297.204V302.5H57.7889V297.732C57.7889 296.884 57.1809 296.356 56.4449 296.356C55.7089 296.356 55.1009 296.884 55.1009 297.732V302.5Z" fill="#fff"/>
<g filter="url(#filter3_b_7827_44077)">
<path d="M98.5 305C98.5 305.443 98.1916 305.97 97.3786 306.536C96.5803 307.091 95.3925 307.611 93.8797 308.056C90.8608 308.944 86.6605 309.5 82 309.5C77.3395 309.5 73.1392 308.944 70.1203 308.056C68.6075 307.611 67.4197 307.091 66.6214 306.536C65.8084 305.97 65.5 305.443 65.5 305C65.5 304.557 65.8084 304.03 66.6214 303.464C67.4197 302.909 68.6075 302.389 70.1203 301.944C73.1392 301.056 77.3395 300.5 82 300.5C86.6605 300.5 90.8608 301.056 93.8797 301.944C95.3925 302.389 96.5803 302.909 97.3786 303.464C98.1916 304.03 98.5 304.557 98.5 305Z" stroke="white" strokeOpacity="0.2"/>
</g>
<path d="M90.62 292.45C89.57 287.83 85.54 285.75 82 285.75C82 285.75 82 285.75 81.99 285.75C78.46 285.75 74.42 287.82 73.37 292.44C72.2 297.6 75.36 301.97 78.22 304.72C79.28 305.74 80.64 306.25 82 306.25C83.36 306.25 84.72 305.74 85.77 304.72C88.63 301.97 91.79 297.61 90.62 292.45Z" fill="#F0F0F0"/>
<path d="M82 297.46C83.7397 297.46 85.15 296.05 85.15 294.31C85.15 292.57 83.7397 291.16 82 291.16C80.2603 291.16 78.85 292.57 78.85 294.31C78.85 296.05 80.2603 297.46 82 297.46Z" fill="white"/>
<g filter="url(#filter4_b_7827_44077)">
<path d="M393.5 202C393.5 202.443 393.192 202.97 392.379 203.536C391.58 204.091 390.392 204.611 388.88 205.056C385.861 205.944 381.661 206.5 377 206.5C372.339 206.5 368.139 205.944 365.12 205.056C363.608 204.611 362.42 204.091 361.621 203.536C360.808 202.97 360.5 202.443 360.5 202C360.5 201.557 360.808 201.03 361.621 200.464C362.42 199.909 363.608 199.389 365.12 198.944C368.139 198.056 372.339 197.5 377 197.5C381.661 197.5 385.861 198.056 388.88 198.944C390.392 199.389 391.58 199.909 392.379 200.464C393.192 201.03 393.5 201.557 393.5 202Z" stroke="white" strokeOpacity="0.2"/>
</g>
<path d="M385.62 189.45C384.57 184.83 380.54 182.75 377 182.75C377 182.75 377 182.75 376.99 182.75C373.46 182.75 369.42 184.82 368.37 189.44C367.2 194.6 370.36 198.97 373.22 201.72C374.28 202.74 375.64 203.25 377 203.25C378.36 203.25 379.72 202.74 380.77 201.72C383.63 198.97 386.79 194.61 385.62 189.45Z" fill="#F0F0F0"/>
<path d="M377 194.46C378.74 194.46 380.15 193.05 380.15 191.31C380.15 189.57 378.74 188.16 377 188.16C375.26 188.16 373.85 189.57 373.85 191.31C373.85 193.05 375.26 194.46 377 194.46Z" fill="white"/>
<path d="M352.019 224.24L353.891 218.8H356.835V230H354.547V224.336C354.547 223.696 354.595 223.152 354.643 222.56L352.259 230H350.563L348.179 222.56C348.227 223.152 348.275 223.696 348.275 224.336V230H345.987V218.8H348.931L350.803 224.24C351.011 224.832 351.347 225.664 351.411 226.448C351.475 225.664 351.811 224.832 352.019 224.24ZM366.228 226.224V226.576H360.356C360.452 227.664 361.268 228.368 362.244 228.368C363.156 228.368 363.828 227.888 364.02 227.168H366.164C365.78 229.104 364.356 230.224 362.244 230.224C359.764 230.224 358.132 228.4 358.132 226.048C358.132 223.584 360.004 221.872 362.228 221.872C364.724 221.872 366.228 223.392 366.228 226.224ZM362.26 223.6C361.444 223.6 360.756 224.096 360.468 224.896H364.132C363.908 224.112 363.284 223.6 362.26 223.6ZM371.558 230.224C368.982 230.224 367.286 228.368 367.286 226.048C367.286 223.728 368.982 221.872 371.558 221.872C374.134 221.872 375.83 223.728 375.83 226.048C375.83 228.368 374.134 230.224 371.558 230.224ZM371.558 228.144C372.71 228.144 373.59 227.312 373.59 226.048C373.59 224.784 372.71 223.952 371.558 223.952C370.406 223.952 369.526 224.784 369.526 226.048C369.526 227.312 370.406 228.144 371.558 228.144ZM386.885 230H384.101L380.101 218.8H382.597L385.173 226.464C385.285 226.816 385.381 227.12 385.493 227.504C385.605 227.12 385.701 226.816 385.813 226.464L388.389 218.8H390.885L386.885 230ZM394.179 230.224C391.955 230.224 390.323 228.368 390.323 226.048C390.323 223.728 391.971 221.872 394.243 221.872C395.363 221.872 396.195 222.224 396.723 222.768V222.096H398.803V230H396.723V229.04C396.211 229.728 395.459 230.224 394.179 230.224ZM394.643 228.144C395.795 228.144 396.723 227.312 396.723 226.048C396.723 224.784 395.795 223.952 394.643 223.952C393.491 223.952 392.563 224.784 392.563 226.048C392.563 227.312 393.491 228.144 394.643 228.144ZM404.355 230.224C401.859 230.224 400.179 228.368 400.179 226.048C400.179 223.728 401.859 221.872 404.355 221.872C406.851 221.872 408.195 223.2 408.435 225.056H406.099C405.875 224.4 405.315 223.952 404.355 223.952C403.347 223.952 402.419 224.784 402.419 226.048C402.419 227.312 403.331 228.144 404.355 228.144C405.299 228.144 405.843 227.728 406.099 227.04H408.435C408.067 228.976 406.771 230.224 404.355 230.224Z" fill="#fff"/>
<g filter="url(#filter5_b_7827_44077)">
<path d="M355.5 126C355.5 126.443 355.192 126.97 354.379 127.536C353.58 128.091 352.392 128.611 350.88 129.056C347.861 129.944 343.661 130.5 339 130.5C334.339 130.5 330.139 129.944 327.12 129.056C325.608 128.611 324.42 128.091 323.621 127.536C322.808 126.97 322.5 126.443 322.5 126C322.5 125.557 322.808 125.03 323.621 124.464C324.42 123.909 325.608 123.389 327.12 122.944C330.139 122.056 334.339 121.5 339 121.5C343.661 121.5 347.861 122.056 350.88 122.944C352.392 123.389 353.58 123.909 354.379 124.464C355.192 125.03 355.5 125.557 355.5 126Z" stroke="white" strokeOpacity="0.2"/>
</g>
<path d="M347.62 113.45C346.57 108.83 342.54 106.75 339 106.75C339 106.75 339 106.75 338.99 106.75C335.46 106.75 331.42 108.82 330.37 113.44C329.2 118.6 332.36 122.97 335.22 125.72C336.28 126.74 337.64 127.25 339 127.25C340.36 127.25 341.72 126.74 342.77 125.72C345.63 122.97 348.79 118.61 347.62 113.45Z" fill="#F0F0F0"/>
<path d="M339 118.46C340.74 118.46 342.15 117.05 342.15 115.31C342.15 113.57 340.74 112.16 339 112.16C337.26 112.16 335.85 113.57 335.85 115.31C335.85 117.05 337.26 118.46 339 118.46Z" fill="white"/>
<path d="M365.17 108.8H368.786C371.89 108.8 374.434 110.608 374.434 114.4C374.434 118.192 371.89 120 368.786 120H365.17V115.36H363.954V113.44H365.17V108.8ZM367.538 117.824H368.69C370.594 117.824 372.066 116.64 372.066 114.4C372.066 112.16 370.594 110.976 368.69 110.976H367.538V113.44H370.306V115.36H367.538V117.824ZM378.799 111.088H376.815L378.879 108.576H380.655L382.719 111.088H380.735L379.775 110.064L378.799 111.088ZM379.775 120.224C377.199 120.224 375.503 118.368 375.503 116.048C375.503 113.728 377.199 111.872 379.775 111.872C382.351 111.872 384.047 113.728 384.047 116.048C384.047 118.368 382.351 120.224 379.775 120.224ZM379.775 118.144C380.927 118.144 381.807 117.312 381.807 116.048C381.807 114.784 380.927 113.952 379.775 113.952C378.623 113.952 377.743 114.784 377.743 116.048C377.743 117.312 378.623 118.144 379.775 118.144ZM380.97 108.088H378.986L377.082 105.576H379.93L380.97 108.088ZM387.871 120H385.631V112.096H387.711V113.328C388.031 112.512 388.991 111.872 390.207 111.872C391.759 111.872 392.799 112.912 392.799 114.704V120H390.559V115.232C390.559 114.384 389.951 113.856 389.215 113.856C388.479 113.856 387.871 114.384 387.871 115.232V120ZM398.405 123.424C396.053 123.424 394.597 122.096 394.533 120.416H396.885C396.981 121.056 397.509 121.536 398.453 121.536C399.557 121.536 400.165 120.864 400.165 120V118.784C399.701 119.392 398.949 119.808 397.861 119.808C395.653 119.808 394.181 118 394.181 115.84C394.181 113.68 395.861 111.872 397.909 111.872C399.061 111.872 399.845 112.288 400.325 112.896V112.096H402.405V119.84C402.405 121.744 401.109 123.424 398.405 123.424ZM398.341 117.728C399.429 117.728 400.261 116.88 400.261 115.84C400.261 114.736 399.429 113.952 398.341 113.952C397.253 113.952 396.421 114.736 396.421 115.84C396.421 116.944 397.253 117.728 398.341 117.728ZM413.875 120H411.091L407.091 108.8H409.587L412.163 116.464C412.275 116.816 412.371 117.12 412.483 117.504C412.595 117.12 412.691 116.816 412.803 116.464L415.379 108.8H417.875L413.875 120ZM421.776 110.992C420.416 110.992 419.472 110.064 419.472 108.8H421.072C421.072 109.12 421.328 109.472 421.776 109.472C422.224 109.472 422.48 109.12 422.48 108.8H424.08C424.08 110.064 423.136 110.992 421.776 110.992ZM421.168 120.224C418.944 120.224 417.312 118.368 417.312 116.048C417.312 113.728 418.96 111.872 421.232 111.872C422.352 111.872 423.184 112.224 423.712 112.768V112.096H425.792V120H423.712V119.04C423.2 119.728 422.448 120.224 421.168 120.224ZM421.632 118.144C422.784 118.144 423.712 117.312 423.712 116.048C423.712 114.784 422.784 113.952 421.632 113.952C420.48 113.952 419.552 114.784 419.552 116.048C419.552 117.312 420.48 118.144 421.632 118.144ZM429.824 120H427.584V112.096H429.664V113.328C429.984 112.512 430.944 111.872 432.16 111.872C433.712 111.872 434.752 112.912 434.752 114.704V120H432.512V115.232C432.512 114.384 431.904 113.856 431.168 113.856C430.432 113.856 429.824 114.384 429.824 115.232V120Z" fill="#fff"/>
<path d="M297.222 15H290.182V3.8H292.55V12.824H297.222V15ZM301.12 15.224C299.376 15.224 298.416 14.008 298.416 12.312V7.096H300.656V11.864C300.656 12.712 301.264 13.24 302 13.24C302.736 13.24 303.344 12.712 303.344 11.864V7.096H305.584V15H303.504V13.768C303.104 14.664 302.352 15.224 301.12 15.224ZM309.621 15H307.381V7.096H309.461V8.328C309.781 7.512 310.741 6.872 311.957 6.872C313.509 6.872 314.549 7.912 314.549 9.704V15H312.309V10.232C312.309 9.384 311.701 8.856 310.965 8.856C310.229 8.856 309.621 9.384 309.621 10.232V15ZM320.155 18.424C317.803 18.424 316.347 17.096 316.283 15.416H318.635C318.731 16.056 319.259 16.536 320.203 16.536C321.307 16.536 321.915 15.864 321.915 15V13.784C321.451 14.392 320.699 14.808 319.611 14.808C317.403 14.808 315.931 13 315.931 10.84C315.931 8.68 317.611 6.872 319.659 6.872C320.811 6.872 321.595 7.288 322.075 7.896V7.096H324.155V14.84C324.155 16.744 322.859 18.424 320.155 18.424ZM320.091 12.728C321.179 12.728 322.011 11.88 322.011 10.84C322.011 9.736 321.179 8.952 320.091 8.952C319.003 8.952 318.171 9.736 318.171 10.84C318.171 11.944 319.003 12.728 320.091 12.728ZM334.841 15.224C331.705 15.224 329.193 12.84 329.193 9.4C329.193 5.96 331.753 3.576 334.841 3.576C337.849 3.576 339.737 5.24 340.169 7.896H337.753C337.401 6.584 336.345 5.784 334.841 5.784C333.033 5.784 331.561 7.256 331.561 9.4C331.561 11.544 333.033 13.016 334.841 13.016C336.329 13.016 337.401 12.248 337.753 10.888H340.217C339.737 13.576 337.625 15.224 334.841 15.224ZM344.276 15.224C342.532 15.224 341.572 14.008 341.572 12.312V7.096H343.812V11.864C343.812 12.712 344.42 13.24 345.156 13.24C345.892 13.24 346.5 12.712 346.5 11.864V7.096H348.74V15H346.66V13.768C346.26 14.664 345.508 15.224 344.276 15.224Z" fill="#fff"/>
<path d="M319.248 60.9212L308.551 50.4489C307.122 49.047 305.985 47.3757 305.205 45.5315C304.425 43.6872 304.019 41.7066 304.008 39.7041C303.997 37.7015 304.384 35.7167 305.144 33.8644C305.904 32.012 307.024 30.3288 308.438 28.912C309.852 27.4952 311.533 26.3729 313.383 25.61C315.233 24.847 317.216 24.4585 319.217 24.4669C321.218 24.4753 323.197 24.8805 325.041 25.659C326.884 26.4375 328.555 27.5739 329.958 29.0025C332.794 31.8473 334.386 35.7018 334.386 39.7204C334.386 43.739 332.794 47.5935 329.958 50.4382L319.248 60.9212ZM319.248 27.5929C316.852 27.5925 314.509 28.3035 312.516 29.636C310.523 30.9685 308.97 32.8626 308.052 35.0787C307.135 37.2948 306.895 39.7333 307.363 42.0859C307.831 44.4384 308.986 46.5992 310.681 48.295L319.248 56.6862L327.828 48.2889C329.522 46.5921 330.675 44.4307 331.141 42.0781C331.607 39.7254 331.366 37.2873 330.448 35.0719C329.529 32.8566 327.975 30.9636 325.981 29.6323C323.988 28.301 321.645 27.5913 319.248 27.5929ZM319.248 48.8043C317.451 48.8043 315.694 48.2709 314.2 47.2716C312.705 46.2723 311.541 44.8519 310.853 43.1901C310.165 41.5283 309.985 39.6997 310.336 37.9355C310.686 36.1714 311.552 34.5509 312.823 33.279C314.094 32.0071 315.713 31.1409 317.476 30.79C319.238 30.4391 321.065 30.6192 322.726 31.3076C324.386 31.9959 325.806 33.1616 326.804 34.6571C327.803 36.1527 328.335 37.9111 328.335 39.7098C328.333 42.121 327.375 44.4329 325.671 46.1379C323.968 47.8429 321.658 48.8019 319.248 48.8043ZM319.248 33.6468C318.05 33.6468 316.879 34.0024 315.883 34.6686C314.886 35.3348 314.11 36.2817 313.651 37.3896C313.193 38.4974 313.073 39.7165 313.307 40.8926C313.54 42.0687 314.117 43.149 314.965 43.997C315.812 44.8449 316.891 45.4223 318.066 45.6563C319.242 45.8902 320.46 45.7701 321.567 45.3112C322.674 44.8524 323.62 44.0752 324.285 43.0782C324.951 42.0811 325.306 40.9089 325.306 39.7098C325.306 38.1018 324.668 36.5596 323.532 35.4226C322.396 34.2856 320.855 33.6468 319.248 33.6468ZM322.591 40.9118L320.763 39.0823V35.1625H317.734V40.3373L320.449 43.055L322.591 40.9118Z" fill="#DA4B19"/>
<rect x="309.476" y="29.9355" width="19.4423" height="19.4423" rx="9.72116" fill="#D20000"/>
<path d="M319.197 30.6562L321.26 36.8166L327.757 36.8751L322.535 40.7409L324.487 46.9374L319.197 43.1663L313.907 46.9374L315.859 40.7409L310.638 36.8751L317.134 36.8166L319.197 30.6562Z" fill="#FFED8E"/>
<circle cx="319.198" cy="63.3501" r="1.82272" fill="#2E2E2E"/>
<defs>
    <filter id="f1" x="0" y="0" xmlns="http://www.w3.org/2000/svg">
      <feGaussianBlur in="SourceGraphic" stdDeviation="0" />
    </filter>
<filter id="filter0_b_7827_44077" x="78" y="458" width="42" height="18" filterUnits="userSpaceOnUse" color-interpolation-filters="sRGB">
<feFlood floodOpacity="0" result="BackgroundImageFix"/>
<feGaussianBlur in="BackgroundImageFix" stdDeviation="2"/>
<feComposite in2="SourceAlpha" operator="in" result="effect1_backgroundBlur_7827_44077"/>
<feBlend mode="normal" in="SourceGraphic" in2="effect1_backgroundBlur_7827_44077" result="shape"/>
</filter>
<filter id="filter1_b_7827_44077" x="172.5" y="238" width="42" height="18" filterUnits="userSpaceOnUse" color-interpolation-filters="sRGB">
<feFlood floodOpacity="0" result="BackgroundImageFix"/>
<feGaussianBlur in="BackgroundImageFix" stdDeviation="2"/>
<feComposite in2="SourceAlpha" operator="in" result="effect1_backgroundBlur_7827_44077"/>
<feBlend mode="normal" in="SourceGraphic" in2="effect1_backgroundBlur_7827_44077" result="shape"/>
</filter>
<filter id="filter2_b_7827_44077" x="239.5" y="437" width="42" height="18" filterUnits="userSpaceOnUse" color-interpolation-filters="sRGB">
<feFlood floodOpacity="0" result="BackgroundImageFix"/>
<feGaussianBlur in="BackgroundImageFix" stdDeviation="2"/>
<feComposite in2="SourceAlpha" operator="in" result="effect1_backgroundBlur_7827_44077"/>
<feBlend mode="normal" in="SourceGraphic" in2="effect1_backgroundBlur_7827_44077" result="shape"/>
</filter>
<filter id="filter3_b_7827_44077" x="61" y="296" width="42" height="18" filterUnits="userSpaceOnUse" color-interpolation-filters="sRGB">
<feFlood floodOpacity="0" result="BackgroundImageFix"/>
<feGaussianBlur in="BackgroundImageFix" stdDeviation="2"/>
<feComposite in2="SourceAlpha" operator="in" result="effect1_backgroundBlur_7827_44077"/>
<feBlend mode="normal" in="SourceGraphic" in2="effect1_backgroundBlur_7827_44077" result="shape"/>
</filter>
<filter id="filter4_b_7827_44077" x="356" y="193" width="42" height="18" filterUnits="userSpaceOnUse" color-interpolation-filters="sRGB">
<feFlood floodOpacity="0" result="BackgroundImageFix"/>
<feGaussianBlur in="BackgroundImageFix" stdDeviation="2"/>
<feComposite in2="SourceAlpha" operator="in" result="effect1_backgroundBlur_7827_44077"/>
<feBlend mode="normal" in="SourceGraphic" in2="effect1_backgroundBlur_7827_44077" result="shape"/>
</filter>
<filter id="filter5_b_7827_44077" x="318" y="117" width="42" height="18" filterUnits="userSpaceOnUse" color-interpolation-filters="sRGB">
<feFlood floodOpacity="0" result="BackgroundImageFix"/>
<feGaussianBlur in="BackgroundImageFix" stdDeviation="2"/>
<feComposite in2="SourceAlpha" operator="in" result="effect1_backgroundBlur_7827_44077"/>
<feBlend mode="normal" in="SourceGraphic" in2="effect1_backgroundBlur_7827_44077" result="shape"/>
</filter>
</defs>
</svg>
